<svg height="60pt" viewBox="0 0 60.058857 60" width="60pt" xmlns="http://www.w3.org/2000/svg"><path d="m58.980469 3.058594c.007812-.597656-.25-1.167969-.707031-1.558594-.152344-.128906-.324219-.230469-.511719-.296875-.039063-.023437-.097657-.042969-.148438-.0625-.09375-.027344-.191406-.050781-.289062-.070313-.109375-.019531-.21875-.027343-.332031-.027343h-3.015626l-6.8125-.011719c-.273437.050781-.519531.191406-.699218.398438l-21.710938 21.710937c-.796875-.242187-1.605468-.433594-2.429687-.570313-1.46875-.242187-2.96875-.304687-4.453125-.179687-6.746094.539063-12.648438 4.75-15.351563 10.953125-2.703125 6.207031-1.761719 13.394531 2.441407 18.699219.421874.519531.851562 1.011719 1.300781 1.46875 5.929687 6.03125 15.214843 7.222656 22.472656 2.882812 7.261719-4.335937 10.613281-13.074219 8.117187-21.15625l2.160157-2.15625c.125-.128906.191406-.308593.179687-.488281l-.492187-5.316406c-.011719-.160156.039062-.316406.140625-.441406.125-.160157.328125-.246094.53125-.226563l2.398437.21875 2.464844.230469c.183594.011718.359375-.054688.488281-.183594s.195313-.304688.183594-.488281l-.449219-4.863281c-.011719-.160157.035157-.316407.136719-.441407.125-.164062.328125-.25.53125-.230469l2.398438.222657 2.464843.226562c.183594.015625.363281-.050781.492188-.179687.128906-.128906.191406-.304688.179687-.488282l-.441406-4.886718c-.011719-.15625.039062-.316406.140625-.4375.125-.15625.320313-.238282.519531-.21875l2.867188.257812 2.476562.21875c.179688.015625.355469-.050781.480469-.179687l2.019531-2.078125c.179688-.1875.277344-.4375.277344-.699219zm-41.371094 46.238281c-1.914063 1.898437-5 1.898437-6.914063 0-.039062-.035156-.070312-.074219-.097656-.121094-.117187-.105469-.222656-.226562-.308594-.359375l-.011718-.007812c-.097656-.121094-.1875-.246094-.261719-.382813-.089844-.128906-.164063-.265625-.226563-.40625-.082031-.152343-.152343-.3125-.210937-.472656-.050781-.121094-.089844-.25-.121094-.378906-.484375-1.699219-.007812-3.53125 1.242188-4.78125 1.25-1.253907 3.082031-1.726563 4.78125-1.242188.132812.027344.257812.070313.382812.121094.160157.058594.316407.128906.46875.207031.144531.0625.28125.140625.410157.230469.132812.074219.261718.160156.378906.261719l.011718.007812c.128907.089844.25.195313.359376.308594.042968.027344.082031.0625.117187.101562 1.910156 1.910157 1.910156 5.003907 0 6.914063zm0 0" fill="#a4c2f7"/><path d="m55.984375 3.058594c.007813-.597656-.253906-1.167969-.710937-1.558594-.148438-.128906-.320313-.230469-.507813-.296875-.039063-.023437-.101563-.042969-.148437-.0625-.097657-.027344-.191407-.050781-.292969-.070313-.105469-.019531-.21875-.027343-.328125-.027343h-.019532l-6.8125-.011719c-.273437.050781-.519531.191406-.699218.398438l-21.710938 21.710937c-.796875-.242187-1.605468-.433594-2.429687-.570313l-.566407.570313c-1.265624-.386719-2.570312-.640625-3.886718-.75-6.746094.539063-12.648438 4.75-15.351563 10.953125-2.703125 6.207031-1.761719 13.394531 2.441407 18.699219.421874.519531.851562 1.011719 1.300781 1.46875 3.089843 3.148437 7.21875 5.066406 11.617187 5.40625 5.53125-.464844 10.554688-3.410157 13.660156-8.011719 3.105469-4.601562 3.957032-10.363281 2.316407-15.667969l2.15625-2.15625c.128906-.128906.195312-.308593.179687-.488281l-.488281-5.316406c-.015625-.183594.050781-.359375.179687-.492188.128907-.128906.308594-.195312.488282-.175781l2.46875.226563 2.398437.222656c.179688.011718.359375-.054688.488281-.183594.125-.128906.191407-.304688.179688-.488281l-.449219-4.863281c-.015625-.183594.050781-.363282.179688-.492188.128906-.128906.308593-.195312.492187-.179688l2.464844.230469 2.398438.21875c.179687.015625.359374-.050781.488281-.179687.125-.128906.195312-.308594.183593-.488282l-.441406-4.886718c-.015625-.175782.050782-.355469.175782-.480469.128906-.128906.304687-.191406.484374-.175781l2.476563.21875 2.867187.257812c.179688.015625.355469-.050781.480469-.179687l.039063-.039063 1.980468-2.039062c.179688-.1875.277344-.4375.277344-.699219zm-38.375 46.238281c-1.296875 1.296875-3.210937 1.757813-4.953125 1.1875-1.691406.550781-.269531.152344-1.609375-1.1875-.039063-.035156-.074219-.074219-.101563-.121094-.117187-.105469-.21875-.226562-.308593-.359375l-.011719-.007812c-.097656-.121094-.183594-.246094-.257812-.382813-.089844-.128906-.167969-.265625-.230469-.40625-.078125-.152343-.148438-.3125-.210938-.472656-.046875-.121094-.089843-.25-.117187-.378906-.492188-1.699219-.015625-3.535157 1.238281-4.785157 1.296875-1.296874-.210937-1.707031 1.4375-1.238281.054687.011719.109375.027344.160156.050781.917969-.300781 1.910157-.320312 2.835938-.050781.132812.027344.257812.070313.382812.121094.160157.058594.316407.128906.46875.207031.144531.0625.28125.140625.410157.230469.132812.074219.261718.160156.378906.261719l.011718.007812c.128907.089844.25.195313.359376.308594.042968.027344.082031.0625.117187.101562 1.910156 1.910157 1.910156 5.003907 0 6.914063zm0 0" fill="#cad9fc"/><path d="m48.011719 7.984375c0-.550781-.445313-1-1-1-.550781 0-.996094.449219-.996094 1s.445313 1 .996094 1c.554687 0 1-.449219 1-1zm0 0" fill="#428dff"/><path d="m49.988281 21.300781c.101563.007813.195313-.007812.285157-.046875-.085938.039063-.183594.054688-.285157.046875zm0 0" fill="#fff"/><path d="m50.5 21.085938c-.046875.050781-.097656.089843-.15625.125.058594-.035157.109375-.074219.15625-.125zm0 0" fill="#fff"/><path d="m44.746094 26.839844c-.046875.050781-.101563.09375-.160156.125.058593-.03125.113281-.074219.160156-.125zm0 0" fill="#fff"/><path d="m44.234375 27.058594c.097656.003906.195313-.011719.285156-.050782-.089843.039063-.1875.054688-.285156.050782zm0 0" fill="#fff"/><path d="m7.304688 53.511719c3.777343 3.871093 9.089843 5.847656 14.480468 5.390625-4.347656-.367188-8.421875-2.277344-11.484375-5.390625-.449219-.457031-.878906-.949219-1.296875-1.46875-4.203125-5.296875-5.144531-12.476563-2.449218-18.683594 2.691406-6.203125 8.582031-10.414063 15.320312-10.964844-.984375-.082031-1.976562-.085937-2.960938-.003906-6.746093.535156-12.648437 4.746094-15.347656 10.953125-2.703125 6.207031-1.765625 13.394531 2.441406 18.699219.417969.519531.847657 1.011719 1.296876 1.46875zm0 0" fill="#fff"/><path d="m24.046875 22.429688 9.1875-9.183594 12.519531-12.519532 1.414063 1.410157-21.707031 21.707031zm0 0" fill="#fff"/><g fill="#428dff"><path d="m28.289062 19.605469c-.390624-.390625-1.023437-.390625-1.414062 0l-2.824219 2.824219 1.410157 1.414062 2.828124-2.828125c.386719-.390625.386719-1.019531 0-1.410156zm0 0"/><path d="m47.167969 2.136719-1.414063-1.410157-13.226562 13.226563c-.253906.25-.355469.621094-.261719.964844.089844.347656.363281.617187.707031.710937.347656.089844.714844-.007812.96875-.261718zm0 0"/><path d="m29.699219 16.777344c-.183594.191406-.289063.441406-.296875.707031l.023437.191406c.011719.066407.03125.132813.0625.191407.019531.058593.046875.117187.082031.167968.039063.054688.082032.105469.128907.15625.191406.183594.441406.289063.707031.296875.335938.003907.652344-.160156.839844-.441406.183594-.28125.214844-.636719.078125-.945313-.046875-.117187-.121094-.230468-.210938-.324218-.1875-.1875-.441406-.296875-.707031-.296875s-.519531.109375-.707031.296875zm0 0"/><path d="m19.328125 59.984375c-.359375 0-.714844-.011719-1.078125-.03125-5.519531-.289063-10.648438-2.945313-14.066406-7.289063-5.265625-6.644531-5.589844-15.941406-.804688-22.933593 4.789063-6.992188 13.570313-10.050781 21.667969-7.546875.347656.097656.617187.375.699219.730468.085937.351563-.027344.722657-.296875.964844-.265625.246094-.644531.328125-.988281.210938-7.613282-2.351563-15.847657.785156-19.964844 7.609375-4.113282 6.824219-3.046875 15.574219 2.589844 21.207031 5.632812 5.636719 14.382812 6.703125 21.207031 2.585938 6.824219-4.113282 9.960937-12.351563 7.605469-19.964844-.109376-.351563-.011719-.738282.25-1l2.027343-2.027344-.46875-5.136719c-.042969-.476562.125-.949219.464844-1.285156.335937-.339844.808594-.507813 1.285156-.464844l4.40625.402344-.402343-4.410156c-.042969-.476563.128906-.945313.464843-1.285157.339844-.335937.808594-.507812 1.285157-.464843l4.410156.402343-.394532-4.417968c-.042968-.476563.125-.945313.464844-1.285156.335938-.335938.804688-.507813 1.28125-.464844l5.144532.464844 1.886718-1.941407-.015625-9.558593c.003907-.269532-.097656-.527344-.289062-.71875-.1875-.191407-.445313-.300782-.710938-.300782h-.003906l-9.691406-.007812c-.042969.035156-.085938.070312-.125.109375-.394531.378906-1.019531.375-1.402344-.011719-.386719-.386719-.390625-1.011719-.007813-1.402344.34375-.367187.796876-.605468 1.292969-.6835935.042969-.0078125.101563.0117187.125-.0078125l9.804688.0078125c.796875.0039063 1.5625.3203125 2.132812.8828125.566407.566406.878907 1.335937.871094 2.140625l.019531 9.546875c0 .519531-.203125 1.019531-.566406 1.394531l-2.019531 2.078125c-.332031.34375-.804688.519531-1.285157.476563l-4.875-.4375.398438 4.421875c.042969.476562-.128906.945312-.464844 1.28125-.339844.339843-.808594.507812-1.285156.464843l-4.410156-.402343.402344 4.410156c.046874.476563-.125.945313-.464844 1.285156-.335938.335938-.808594.507813-1.285156.464844l-4.40625-.402344.441406 4.851563c.042968.476562-.125.949218-.464844 1.285156l-1.738281 1.742188c1.601562 5.816406.394531 12.046874-3.265625 16.847656-3.660156 4.796875-9.351563 7.617187-15.386719 7.613281zm0 0"/><path d="m14.152344 51.722656c-2.808594 0-5.226563-1.984375-5.769532-4.738281-.546874-2.753906.929688-5.511719 3.523438-6.582031 2.59375-1.074219 5.585938-.164063 7.144531 2.167968 1.558594 2.335938 1.25 5.449219-.734375 7.429688-1.105468 1.109375-2.601562 1.726562-4.164062 1.722656zm0-9.769531c-1.855469 0-3.453125 1.308594-3.8125 3.128906-.359375 1.820313.613281 3.640625 2.328125 4.347657 1.714843.710937 3.691406.109374 4.71875-1.433594 1.03125-1.542969.828125-3.597656-.484375-4.910156-.730469-.726563-1.71875-1.136719-2.75-1.132813zm0 0"/><path d="m28.84375 26.960938c-.40625 0-.769531-.242188-.925781-.617188-.152344-.371094-.066407-.800781.21875-1.085938l15.554687-15.558593c.25-.257813.625-.363281.972656-.269531.347657.09375.621094.363281.710938.710937.089844.351563-.011719.71875-.269531.972656l-15.554688 15.554688c-.1875.1875-.441406.292969-.707031.292969zm0 0"/></g></svg>